<svg xmlns="http://www.w3.org/2000/svg" enable-background="new 0 0 47.5 47.5" viewBox="0 0 47.5 47.5"><defs><clipPath id="a" clipPathUnits="userSpaceOnUse"><path d="M 0,38 38,38 38,0 0,0 0,38 Z"/></clipPath></defs><g clip-path="url(#a)" transform="matrix(1.25 0 0 -1.25 0 47.5)"><path fill="#dd2e44" d="m 0,0 c 0,-2.209 -1.791,-4 -4,-4 l -28,0 c -2.209,0 -4,1.791 -4,4 l 0,18 c 0,2.209 1.791,4 4,4 l 28,0 c 2.209,0 4,-1.791 4,-4 L 0,0 Z" transform="translate(37 10)"/><path fill="#eee" d="m 0,0 34.891,0 c 0.343,0.591 0.554,1.268 0.554,2 l -36,0 C -0.555,1.268 -0.343,0.591 0,0" transform="translate(1.555 8)"/><path fill="#eee" d="M37 12l-36 0 0 2 36 0 0-2zM37 16l-36 0 0 2 36 0 0-2zM37 20l-36 0 0 2 36 0 0-2zM37 24l-36 0 0 2 36 0 0-2z"/><path fill="#eee" d="m 0,0 c -0.343,-0.59 -0.555,-1.268 -0.555,-2 l 36,0 c 0,0.732 -0.211,1.41 -0.554,2 L 0,0 Z" transform="translate(1.555 30)"/><path fill="#3b88c3" d="m 0,0 -14,0 c -2.209,0 -4,-1.791 -4,-4 l 0,-10 18,0 0,14 z" transform="translate(19 32)"/><path fill="#bbddf5" d="M15 28l2 0 0 2-2 0 0-2zM13 26l2 0 0 2-2 0 0-2zM17 24l-2 0 0 2 2 0 0-2zM13 22l2 0 0 2-2 0 0-2zM13 28l-2 0 0 2 2 0 0-2zM13 24l-2 0 0 2 2 0 0-2zM9 22l2 0 0 2-2 0 0-2zM11 26l-2 0 0 2 2 0 0-2zM7 28l2 0 0 2-2 0 0-2zM5 26l2 0 0 2-2 0 0-2zM7 24l2 0 0 2-2 0 0-2zM5 22l2 0 0 2-2 0 0-2zM3 30l2 0 0-2-2 0 0 2zM3 24l2 0 0 2-2 0 0-2zM17 20l-2 0 0 2 2 0 0-2zM13 20l-2 0 0 2 2 0 0-2zM7 20l2 0 0 2-2 0 0-2zM3 20l2 0 0 2-2 0 0-2z"/></g></svg>