<svg viewBox="0 0 64 64" fill="none" xmlns="http://www.w3.org/2000/svg">
<rect width="64" height="64" fill="#DF01A1"/>
<g clip-path="url(#clip0_314_2)">
<path d="M47.6 46.6H16.4C15.74 46.6 15.2 47.14 15.2 47.8V50.2C15.2 50.86 15.74 51.4 16.4 51.4H47.6C48.26 51.4 48.8 50.86 48.8 50.2V47.8C48.8 47.14 48.26 46.6 47.6 46.6ZM52.4 22.6C50.4125 22.6 48.8 24.2125 48.8 26.2C48.8 26.7325 48.92 27.2275 49.13 27.685L43.7 30.94C42.545 31.63 41.0525 31.24 40.385 30.07L34.2725 19.375C35.075 18.715 35.6 17.725 35.6 16.6C35.6 14.6125 33.9875 13 32 13C30.0125 13 28.4 14.6125 28.4 16.6C28.4 17.725 28.925 18.715 29.7275 19.375L23.615 30.07C22.9475 31.24 21.4475 31.63 20.3 30.94L14.8775 27.685C15.08 27.235 15.2075 26.7325 15.2075 26.2C15.2075 24.2125 13.595 22.6 11.6075 22.6C9.62 22.6 8 24.2125 8 26.2C8 28.1875 9.6125 29.8 11.6 29.8C11.795 29.8 11.99 29.77 12.1775 29.74L17.6 44.2H46.4L51.8225 29.74C52.01 29.77 52.205 29.8 52.4 29.8C54.3875 29.8 56 28.1875 56 26.2C56 24.2125 54.3875 22.6 52.4 22.6Z" fill="#121128"/>
</g>
<path d="M0 32H32V64H0V32Z" fill="#121128"/>
<rect x="32" width="32" height="32" fill="#121128"/>
<mask id="mask0_314_2" style="mask-type:alpha" maskUnits="userSpaceOnUse" x="0" y="0" width="64" height="64">
<path d="M0 32H32V64H0V32Z" fill="#121128"/>
<rect x="32" width="32" height="32" fill="#121128"/>
</mask>
<g mask="url(#mask0_314_2)">
<path d="M47.6 46.6H16.4C15.74 46.6 15.2 47.14 15.2 47.8V50.2C15.2 50.86 15.74 51.4 16.4 51.4H47.6C48.26 51.4 48.8 50.86 48.8 50.2V47.8C48.8 47.14 48.26 46.6 47.6 46.6ZM52.4 22.6C50.4125 22.6 48.8 24.2125 48.8 26.2C48.8 26.7325 48.92 27.2275 49.13 27.685L43.7 30.94C42.545 31.63 41.0525 31.24 40.385 30.07L34.2725 19.375C35.075 18.715 35.6 17.725 35.6 16.6C35.6 14.6125 33.9875 13 32 13C30.0125 13 28.4 14.6125 28.4 16.6C28.4 17.725 28.925 18.715 29.7275 19.375L23.615 30.07C22.9475 31.24 21.4475 31.63 20.3 30.94L14.8775 27.685C15.08 27.235 15.2075 26.7325 15.2075 26.2C15.2075 24.2125 13.595 22.6 11.6075 22.6C9.62 22.6 8 24.2125 8 26.2C8 28.1875 9.6125 29.8 11.6 29.8C11.795 29.8 11.99 29.77 12.1775 29.74L17.6 44.2H46.4L51.8225 29.74C52.01 29.77 52.205 29.8 52.4 29.8C54.3875 29.8 56 28.1875 56 26.2C56 24.2125 54.3875 22.6 52.4 22.6Z" fill="#DF01A1"/>
</g>
<defs>
<clipPath id="clip0_314_2">
<rect width="48" height="38.4" fill="white" transform="translate(8 13)"/>
</clipPath>
</defs>
</svg>
