<svg width="64" height="64" viewBox="0 0 64 64" fill="none" xmlns="http://www.w3.org/2000/svg">
<g clip-path="url(#clip0_309_73)">
<rect width="64" height="64" fill="#DF01A1"/>
<g clip-path="url(#clip1_309_73)">
<path d="M39.8 37.8H24.2C23.87 37.8 23.6 38.07 23.6 38.4V39.6C23.6 39.93 23.87 40.2 24.2 40.2H39.8C40.13 40.2 40.4 39.93 40.4 39.6V38.4C40.4 38.07 40.13 37.8 39.8 37.8ZM42.2 25.8C41.2063 25.8 40.4 26.6063 40.4 27.6C40.4 27.8663 40.46 28.1138 40.565 28.3425L37.85 29.97C37.2725 30.315 36.5263 30.12 36.1925 29.535L33.1363 24.1875C33.5375 23.8575 33.8 23.3625 33.8 22.8C33.8 21.8063 32.9938 21 32 21C31.0063 21 30.2 21.8063 30.2 22.8C30.2 23.3625 30.4625 23.8575 30.8638 24.1875L27.8075 29.535C27.4738 30.12 26.7238 30.315 26.15 29.97L23.4388 28.3425C23.54 28.1175 23.6038 27.8663 23.6038 27.6C23.6038 26.6063 22.7975 25.8 21.8038 25.8C20.81 25.8 20 26.6063 20 27.6C20 28.5938 20.8063 29.4 21.8 29.4C21.8975 29.4 21.995 29.385 22.0888 29.37L24.8 36.6H39.2L41.9113 29.37C42.005 29.385 42.1025 29.4 42.2 29.4C43.1938 29.4 44 28.5938 44 27.6C44 26.6063 43.1938 25.8 42.2 25.8Z" fill="#121128"/>
</g>
<path d="M37.6211 7.0625L36.2539 9.79688H26V7.0625H37.6211ZM37.6211 15.2656L36.2539 18H26V15.2656H37.6211ZM37.6211 11.1641L36.2539 13.8984H26V11.1641H37.6211Z" fill="#121128"/>
<path d="M14 7.0625H16.7344V11.1641H22.2032V7.74609L24.9375 6.37891V18H22.2032V13.8984H16.7344V17.3164L14 18.6836V7.0625Z" fill="#121128"/>
<path d="M4.73441 18L2.00003 15.2656V7.0625H13.6211L12.2539 9.79688H4.73441V13.8984L6.10159 15.2656H12.9375V18H4.73441Z" fill="#121128"/>
<path d="M3.05176e-05 32H32V64H3.05176e-05V32Z" fill="#121128"/>
<rect x="32" width="32" height="32" fill="#121128"/>
<path d="M44.5157 48.4531V59H41V44.9375H53.3047L55.0625 48.4531L48.9102 54.6055L45.3946 52.8477L49.7891 48.4531H44.5157Z" fill="#121128"/>
<path d="M39.9414 44.9375L38.1836 48.4531H33.7891V58.1211L30.2735 59.8789V48.4531H25V44.9375H39.9414Z" fill="#121128"/>
<path d="M12.5157 48.4531V59H9.00003V44.9375H23.0625V61.1973L14.2735 55.9238V51.9688L19.5469 55.1328V48.4531H12.5157Z" fill="#DF01A1"/>
<mask id="mask0_309_73" style="mask-type:alpha" maskUnits="userSpaceOnUse" x="0" y="0" width="64" height="64">
<path d="M3.05176e-05 32H32V64H3.05176e-05V32Z" fill="#121128"/>
<rect x="32" width="32" height="32" fill="#121128"/>
</mask>
<g mask="url(#mask0_309_73)">
<path d="M39.9414 44.9375L38.1836 48.4531H33.7891V58.1211L30.2735 59.8789V48.4531H25V44.9375H39.9414Z" fill="#DF01A1"/>
<path d="M43.1016 9.79688L41.7344 11.1641H49.9375V15.2656L47.2032 18H38.3164L39.6836 15.2656H45.836L47.2032 13.8984H39V9.79688L41.7344 7.0625H50.6211L49.2539 9.79688H43.1016Z" fill="#DF01A1"/>
<path d="M55.1016 9.79688L53.7344 11.1641H61.9375V15.2656L59.2032 18H50.3164L51.6836 15.2656H57.836L59.2032 13.8984H51V9.79688L53.7344 7.0625H62.6211L61.2539 9.79688H55.1016Z" fill="#DF01A1"/>
<path d="M37.6211 7.0625L36.2539 9.79688H26V7.0625H37.6211ZM37.6211 15.2656L36.2539 18H26V15.2656H37.6211ZM37.6211 11.1641L36.2539 13.8984H26V11.1641H37.6211Z" fill="#DF01A1"/>
<path d="M39.8 37.8H24.2C23.87 37.8 23.6 38.07 23.6 38.4V39.6C23.6 39.93 23.87 40.2 24.2 40.2H39.8C40.13 40.2 40.4 39.93 40.4 39.6V38.4C40.4 38.07 40.13 37.8 39.8 37.8ZM42.2 25.8C41.2063 25.8 40.4 26.6063 40.4 27.6C40.4 27.8663 40.46 28.1138 40.565 28.3425L37.85 29.97C37.2725 30.315 36.5263 30.12 36.1925 29.535L33.1363 24.1875C33.5375 23.8575 33.8 23.3625 33.8 22.8C33.8 21.8063 32.9938 21 32 21C31.0063 21 30.2 21.8063 30.2 22.8C30.2 23.3625 30.4625 23.8575 30.8638 24.1875L27.8075 29.535C27.4738 30.12 26.7238 30.315 26.15 29.97L23.4388 28.3425C23.54 28.1175 23.6038 27.8663 23.6038 27.6C23.6038 26.6063 22.7975 25.8 21.8038 25.8C20.81 25.8 20 26.6063 20 27.6C20 28.5938 20.8063 29.4 21.8 29.4C21.8975 29.4 21.995 29.385 22.0888 29.37L24.8 36.6H39.2L41.9113 29.37C42.005 29.385 42.1025 29.4 42.2 29.4C43.1938 29.4 44 28.5938 44 27.6C44 26.6063 43.1938 25.8 42.2 25.8Z" fill="#DF01A1"/>
</g>
</g>
<defs>
<clipPath id="clip0_309_73">
<rect width="64" height="64" fill="white"/>
</clipPath>
<clipPath id="clip1_309_73">
<rect width="24" height="19.2" fill="white" transform="translate(20 21)"/>
</clipPath>
</defs>
</svg>
